<svg xmlns="http://www.w3.org/2000/svg" viewBox="0 0 95.94 77.22"><defs><style>.cls-1{opacity:0.1;}.cls-2{fill:#90d9ee;}.cls-3{fill:#71bdd8;}.cls-4{fill:#fff;}.cls-5{fill:#c9c9c7;}.cls-6{fill:#e4e4e4;}.cls-7{fill:#7f7f7f;}.cls-8{fill:#f0cd42;}.cls-9{fill:#e5ad2c;}.cls-10{fill:#79c9d7;}</style></defs><title>资源 1</title><g id="图层_2" data-name="图层 2"><g id="OBJECTS"><g class="cls-1"><path d="M23.28,3.76s13.51,13.87,35.28,0V77.22S33.78,68.24,26,46.61,23.28,3.76,23.28,3.76Z"/><path d="M94.56,3.76s-14.24,13.87-36,0V77.22s25.14-9,32.89-30.61S94.56,3.76,94.56,3.76Z"/><polygon points="63.37 14.38 35.81 19.44 20.6 45.65 26.35 51.4 63.37 14.38"/><polygon points="63.37 14.38 58.43 42.05 32.35 57.4 26.35 51.4 63.37 14.38"/><rect x="21.7" y="36.06" width="5.45" height="34.52" transform="translate(-30.55 32.89) rotate(-45)"/><rect x="27.8" y="50.79" width="5.45" height="17.26" transform="translate(-33.08 38.99) rotate(-45)"/><rect x="11.45" y="54.37" width="11.81" height="8.18" transform="translate(-36.26 29.4) rotate(-45)"/><rect x="14.34" y="58.63" width="11.81" height="5.45" transform="translate(-37.45 32.28) rotate(-44.99)"/><rect x="9.3" y="56.52" width="4.54" height="15.44" transform="translate(-42.03 27) rotate(-45)"/><rect x="13.8" y="63.74" width="4.54" height="9.99" transform="translate(-43.9 31.5) rotate(-45.01)"/></g><path class="cls-2" d="M18.78,0s13.5,13.88,35.27,0V73.46s-24.78-9-32.54-30.61S18.78,0,18.78,0Z"/><path class="cls-3" d="M90.05,0s-14.23,13.88-36,0V73.46s25.14-9,32.9-30.61S90.05,0,90.05,0Z"/><polygon class="cls-4" points="58.86 10.62 31.31 15.68 16.09 41.89 21.84 47.64 58.86 10.62"/><polygon class="cls-5" points="58.86 10.62 53.93 38.3 27.84 53.64 21.84 47.64 58.86 10.62"/><rect class="cls-6" x="17.19" y="32.31" width="5.45" height="34.52" transform="translate(-29.22 28.6) rotate(-45)"/><rect class="cls-7" x="23.29" y="47.04" width="5.45" height="17.26" transform="translate(-31.74 34.7) rotate(-45)"/><rect class="cls-8" x="6.94" y="50.62" width="11.81" height="8.18" transform="translate(-34.92 25.11) rotate(-45)"/><rect class="cls-9" x="9.83" y="54.87" width="11.81" height="5.45" transform="translate(-36.11 27.99) rotate(-44.99)"/><rect class="cls-10" x="4.79" y="52.77" width="4.54" height="15.44" transform="translate(-40.7 22.71) rotate(-45)"/><rect class="cls-3" x="9.29" y="59.99" width="4.54" height="9.99" transform="translate(-42.57 27.22) rotate(-45.01)"/></g></g></svg>